<svg xmlns="http://www.w3.org/2000/svg" viewBox="0 0 640 640"><defs><style>.cls-1{fill:#fff;}</style></defs><title>logo_for_buttom</title><path class="cls-1" d="M585.44,69.37s59.2-23,54.27,32.89c-1.64,23-16.45,103.61-28,190.77l-39.47,258.2s-3.29,37.83-32.89,44.4-74-23-82.23-29.6c-6.58-4.93-123.34-78.94-164.46-115.12-11.51-9.87-24.67-29.6,1.64-52.63L467,233.82C486.76,214.09,506.5,168,424.27,224L194,380.19s-26.31,16.45-75.65,1.64L11.48,348.94s-39.47-24.67,28-49.34C203.9,222.31,406.18,143.37,585.44,69.37Z"/></svg>